<svg width="94" height="54" viewBox="0 0 94 54" fill="none" xmlns="http://www.w3.org/2000/svg">
<path d="M26.1356 53.2603C23.5818 53.2603 21.0898 52.8868 18.7185 52.1452C16.8775 51.5695 15.0787 50.7802 13.3752 49.7972C9.3229 47.4547 6.07037 44.2471 3.70464 40.2615C1.32769 36.2563 0.120972 31.8185 0.120972 27.0689C0.120972 22.3194 1.32769 17.8816 3.70464 13.8763C6.06757 9.89077 9.3201 6.6832 13.3724 4.34072C17.4332 1.99544 21.9149 0.804535 26.6884 0.804535C31.462 0.804535 35.6546 1.79602 39.2215 3.74808C40.3047 4.32949 41.141 5.12436 41.7135 6.11584C42.2719 7.08485 42.5554 8.14374 42.5554 9.2588C42.5554 10.9834 41.952 12.5731 40.8098 13.8511C39.5975 15.2133 38.0063 15.9351 36.2103 15.9351C35.1944 15.9351 34.1168 15.6852 33.0083 15.1936C30.9821 14.3342 28.8577 13.8988 26.6912 13.8988C24.3508 13.8988 22.2544 14.4746 20.2844 15.6627C18.2891 16.8648 16.7512 18.4377 15.5866 20.4769C14.4276 22.5048 13.8635 24.659 13.8635 27.0689C13.8635 29.4788 14.4276 31.6331 15.5866 33.661C16.7512 35.6973 18.2891 37.273 20.2844 38.4752C22.2544 39.6605 24.348 40.2391 26.6912 40.2391C28.1421 40.2391 30.5696 40.2391 31.8717 39.5509C32.1215 39.4189 32.2758 39.2532 32.3151 39.1549C32.3937 38.9555 32.4021 38.433 32.4077 38.0511C32.4133 37.5427 32.4274 36.4866 32.2113 36.1861C31.8801 35.7282 30.853 35.7086 29.4386 35.731C29.2871 35.731 29.1355 35.7367 28.9896 35.7367C28.9587 35.7367 28.9279 35.7367 28.8942 35.7367C24.8812 35.7367 22.0075 33.4953 21.5641 30.0069C21.1544 26.7796 23.2254 23.6507 26.2759 22.8839C27.3114 22.6227 28.3161 22.6227 29.1215 22.6227H35.1663C35.5087 22.6199 35.8988 22.6031 36.3085 22.5834C37.9249 22.5132 39.9343 22.4233 41.75 23.2715L41.8875 23.3389C43.3299 24.0552 44.4749 25.3331 45.0306 26.8442C46.0015 29.4901 44.8229 32.1275 43.9613 34.0514C43.7761 34.4671 43.5993 34.8603 43.4674 35.2002L43.3327 35.5513C42.7125 37.1551 42.0699 38.8122 41.8847 40.3458C42.6845 40.402 44.009 40.6547 44.677 42.0254C45.0418 42.7697 45.0698 43.6404 44.7555 44.4774C43.8547 46.8817 39.5554 49.7831 35.9661 51.2914C33.0868 52.502 29.8961 53.1817 26.7446 53.2547C26.5397 53.2603 26.3348 53.2631 26.13 53.2631L26.1356 53.2603Z" fill="url(#paint0_linear_14_31389)"/>
<path d="M70.616 51.3558C66.2437 51.3558 62.2419 50.2492 58.7284 48.0696C55.2289 45.9013 52.4619 42.9156 50.503 39.1968C48.5639 35.5146 47.5817 31.4223 47.5817 27.0322C47.5817 22.6422 48.5639 18.5499 50.503 14.8677C52.4619 11.1489 55.2289 8.16323 58.7284 5.99489C62.2447 3.81532 66.2437 2.70868 70.616 2.70868C74.9882 2.70868 78.9872 3.81532 82.5035 5.99489C85.9974 8.16042 88.7729 11.1433 90.7541 14.8564C92.7186 18.5415 93.712 22.6394 93.712 27.0322C93.712 31.4251 92.7158 35.523 90.7541 39.2081C88.7757 42.9212 86.0002 45.9041 82.5035 48.0696C78.9872 50.2492 74.9854 51.3558 70.616 51.3558ZM70.616 15.1598C68.6684 15.1598 67.0014 15.6401 65.5141 16.6259C63.9874 17.6399 62.8256 19.0049 61.9585 20.8053C61.0689 22.6506 60.6198 24.7459 60.6198 27.0351C60.6198 29.3242 61.0717 31.4195 61.9585 33.2648C62.8256 35.0652 63.9874 36.4303 65.5113 37.4442C66.9986 38.4301 68.6656 38.9104 70.6132 38.9104C72.5607 38.9104 74.1744 38.4216 75.6786 37.4189C77.2361 36.3797 78.426 35.0034 79.3128 33.2114C80.2136 31.3914 80.671 29.3157 80.671 27.0379C80.671 24.76 80.2136 22.6843 79.3128 20.8643C78.426 19.0723 77.2389 17.696 75.6814 16.6568C74.1744 15.6513 72.5187 15.1626 70.616 15.1626V15.1598Z" fill="url(#paint1_linear_14_31389)"/>
<defs>
<linearGradient id="paint0_linear_14_31389" x1="0.123778" y1="27.0324" x2="45.3982" y2="27.0324" gradientUnits="userSpaceOnUse">
<stop stop-color="#11A2BC"/>
<stop offset="0.74" stop-color="#01D8DD"/>
</linearGradient>
<linearGradient id="paint1_linear_14_31389" x1="47.5789" y1="27.0351" x2="93.712" y2="27.0351" gradientUnits="userSpaceOnUse">
<stop stop-color="#11A2BC"/>
<stop offset="0.74" stop-color="#01D8DD"/>
</linearGradient>
</defs>
</svg>
